<?xml version="1.0" encoding="UTF-8"?>
<svg xmlns="http://www.w3.org/2000/svg" width="187" height="301">
   <defs>
      <style type="text/css">
    @namespace "http://www.w3.org/2000/svg";
    .line                 {fill: none; stroke: #332900; stroke-width: 1;}
    .bold-line            {stroke: #141000; shape-rendering: crispEdges; stroke-width: 2;}
    .thin-line            {stroke: #1F1800; shape-rendering: crispEdges}
    .filled               {fill: #332900; stroke: none;}
    text.terminal         {font-family: Verdana, Sans-serif;
                            font-size: 12px;
                            fill: #141000;
                            font-weight: bold;
                          }
    text.nonterminal      {font-family: Verdana, Sans-serif;
                            font-size: 12px;
                            fill: #1A1400;
                            font-weight: normal;
                          }
    text.regexp           {font-family: Verdana, Sans-serif;
                            font-size: 12px;
                            fill: #1F1800;
                            font-weight: normal;
                          }
    rect, circle, polygon {fill: #332900; stroke: #332900;}
    rect.terminal         {fill: #FFDB4D; stroke: #332900; stroke-width: 1;}
    rect.nonterminal      {fill: #FFEC9E; stroke: #332900; stroke-width: 1;}
    rect.text             {fill: none; stroke: none;}
    polygon.regexp        {fill: #FFF4C7; stroke: #332900; stroke-width: 1;}
  </style>
   </defs>
   <polygon points="9 17 1 13 1 21"/>
   <polygon points="17 17 9 13 9 21"/>
   <a xmlns:xlink="http://www.w3.org/1999/xlink"
       xlink:href="#increment"
       xlink:title="increment">
      <rect x="51" y="3" width="82" height="32"/>
      <rect x="49" y="1" width="82" height="32" class="nonterminal"/>
      <text class="nonterminal" x="59" y="21">increment</text>
   </a>
   <a xmlns:xlink="http://www.w3.org/1999/xlink"
       xlink:href="#decrement"
       xlink:title="decrement">
      <rect x="51" y="47" width="88" height="32"/>
      <rect x="49" y="45" width="88" height="32" class="nonterminal"/>
      <text class="nonterminal" x="59" y="65">decrement</text>
   </a>
   <a xmlns:xlink="http://www.w3.org/1999/xlink"
       xlink:href="#moveRight"
       xlink:title="moveRight">
      <rect x="51" y="91" width="86" height="32"/>
      <rect x="49" y="89" width="86" height="32" class="nonterminal"/>
      <text class="nonterminal" x="59" y="109">moveRight</text>
   </a>
   <a xmlns:xlink="http://www.w3.org/1999/xlink"
       xlink:href="#moveLeft"
       xlink:title="moveLeft">
      <rect x="51" y="135" width="78" height="32"/>
      <rect x="49" y="133" width="78" height="32" class="nonterminal"/>
      <text class="nonterminal" x="59" y="153">moveLeft</text>
   </a>
   <a xmlns:xlink="http://www.w3.org/1999/xlink"
       xlink:href="#loop"
       xlink:title="loop">
      <rect x="51" y="179" width="46" height="32"/>
      <rect x="49" y="177" width="46" height="32" class="nonterminal"/>
      <text class="nonterminal" x="59" y="197">loop</text>
   </a>
   <a xmlns:xlink="http://www.w3.org/1999/xlink"
       xlink:href="#output"
       xlink:title="output">
      <rect x="51" y="223" width="62" height="32"/>
      <rect x="49" y="221" width="62" height="32" class="nonterminal"/>
      <text class="nonterminal" x="59" y="241">output</text>
   </a>
   <a xmlns:xlink="http://www.w3.org/1999/xlink"
       xlink:href="#input"
       xlink:title="input">
      <rect x="51" y="267" width="52" height="32"/>
      <rect x="49" y="265" width="52" height="32" class="nonterminal"/>
      <text class="nonterminal" x="59" y="285">input</text>
   </a>
   <path class="line"
          d="m17 17 h2 m20 0 h10 m82 0 h10 m0 0 h6 m-128 0 h20 m108 0 h20 m-148 0 q10 0 10 10 m128 0 q0 -10 10 -10 m-138 10 v24 m128 0 v-24 m-128 24 q0 10 10 10 m108 0 q10 0 10 -10 m-118 10 h10 m88 0 h10 m-118 -10 v20 m128 0 v-20 m-128 20 v24 m128 0 v-24 m-128 24 q0 10 10 10 m108 0 q10 0 10 -10 m-118 10 h10 m86 0 h10 m0 0 h2 m-118 -10 v20 m128 0 v-20 m-128 20 v24 m128 0 v-24 m-128 24 q0 10 10 10 m108 0 q10 0 10 -10 m-118 10 h10 m78 0 h10 m0 0 h10 m-118 -10 v20 m128 0 v-20 m-128 20 v24 m128 0 v-24 m-128 24 q0 10 10 10 m108 0 q10 0 10 -10 m-118 10 h10 m46 0 h10 m0 0 h42 m-118 -10 v20 m128 0 v-20 m-128 20 v24 m128 0 v-24 m-128 24 q0 10 10 10 m108 0 q10 0 10 -10 m-118 10 h10 m62 0 h10 m0 0 h26 m-118 -10 v20 m128 0 v-20 m-128 20 v24 m128 0 v-24 m-128 24 q0 10 10 10 m108 0 q10 0 10 -10 m-118 10 h10 m52 0 h10 m0 0 h36 m23 -264 h-3"/>
   <polygon points="177 17 185 13 185 21"/>
   <polygon points="177 17 169 13 169 21"/>
</svg>
