<svg xmlns="http://www.w3.org/2000/svg" xmlns:xlink="http://www.w3.org/1999/xlink" contentStyleType="text/css" height="1573px" preserveAspectRatio="none" style="width:744px;height:1573px;background:#FFFFFF;" version="1.1" viewBox="0 0 744 1573" width="744px" zoomAndPan="magnify"><defs/><g><text fill="#000000" font-family="sans-serif" font-size="14" font-weight="bold" lengthAdjust="spacing" textLength="239.6475" x="250.9128" y="32.9951">The BF Grammar Specification</text><path d="M10,52.2969 L10,77.4297 L344.1743,77.4297 L344.1743,62.2969 L334.1743,52.2969 L10,52.2969 " fill="#FEFFDD" style="stroke:#181818;stroke-width:0.5;"/><path d="M334.1743,52.2969 L334.1743,62.2969 L344.1743,62.2969 L334.1743,52.2969 " fill="#FEFFDD" style="stroke:#181818;stroke-width:0.5;"/><text fill="#000000" font-family="sans-serif" font-size="13" lengthAdjust="spacing" textLength="304.9097" x="20.1323" y="69.3638">Increment the value at the current cell by one.</text><text fill="#000000" font-family="sans-serif" font-size="14" font-weight="bold" lengthAdjust="spacing" textLength="80.2061" x="10" y="105.4248">increment</text><rect fill="none" height="26.2969" style="stroke:#181818;stroke-width:0.5;" width="21.7305" x="40" y="118.7266"/><text fill="#000000" font-family="sans-serif" font-size="14" lengthAdjust="spacing" textLength="11.7305" x="45" y="136.7217">+</text><ellipse cx="14" cy="131.875" fill="none" rx="4" ry="4" style="stroke:#181818;stroke-width:2.0;"/><ellipse cx="91.7305" cy="131.875" fill="#181818" rx="4" ry="4" style="stroke:#181818;stroke-width:1.0;"/><line style="stroke:#181818;stroke-width:1.5;" x1="18" x2="40" y1="131.875" y2="131.875"/><line style="stroke:#181818;stroke-width:1.5;" x1="61.7305" x2="87.7305" y1="131.875" y2="131.875"/><path d="M72.7305,131.875 L72.7305,128.875 L78.7305,131.875 L72.7305,134.875 L72.7305,131.875 " fill="#181818" style="stroke:#181818;stroke-width:1.5;"/><path d="M10,165.0234 L10,190.1563 L350.1094,190.1563 L350.1094,175.0234 L340.1094,165.0234 L10,165.0234 " fill="#FEFFDD" style="stroke:#181818;stroke-width:0.5;"/><path d="M340.1094,165.0234 L340.1094,175.0234 L350.1094,175.0234 L340.1094,165.0234 " fill="#FEFFDD" style="stroke:#181818;stroke-width:0.5;"/><text fill="#000000" font-family="sans-serif" font-size="13" lengthAdjust="spacing" textLength="310.8447" x="20.1323" y="182.0903">Decrement the value at the current cell by one.</text><text fill="#000000" font-family="sans-serif" font-size="14" font-weight="bold" lengthAdjust="spacing" textLength="84.957" x="10" y="218.1514">decrement</text><rect fill="none" height="26.2969" style="stroke:#181818;stroke-width:0.5;" width="15.0518" x="40" y="231.4531"/><text fill="#000000" font-family="sans-serif" font-size="14" lengthAdjust="spacing" textLength="5.0518" x="45" y="249.4482">-</text><ellipse cx="14" cy="244.6016" fill="none" rx="4" ry="4" style="stroke:#181818;stroke-width:2.0;"/><ellipse cx="85.0518" cy="244.6016" fill="#181818" rx="4" ry="4" style="stroke:#181818;stroke-width:1.0;"/><line style="stroke:#181818;stroke-width:1.5;" x1="18" x2="40" y1="244.6016" y2="244.6016"/><line style="stroke:#181818;stroke-width:1.5;" x1="55.0518" x2="81.0518" y1="244.6016" y2="244.6016"/><path d="M66.0518,244.6016 L66.0518,241.6016 L72.0518,244.6016 L66.0518,247.6016 L66.0518,244.6016 " fill="#181818" style="stroke:#181818;stroke-width:1.5;"/><path d="M10,277.75 L10,302.8828 L306.5835,302.8828 L306.5835,287.75 L296.5835,277.75 L10,277.75 " fill="#FEFFDD" style="stroke:#181818;stroke-width:0.5;"/><path d="M296.5835,277.75 L296.5835,287.75 L306.5835,287.75 L296.5835,277.75 " fill="#FEFFDD" style="stroke:#181818;stroke-width:0.5;"/><text fill="#000000" font-family="sans-serif" font-size="13" lengthAdjust="spacing" textLength="267.3188" x="20.1323" y="294.8169">Move the pointer to the right by one cell.</text><text fill="#000000" font-family="sans-serif" font-size="14" font-weight="bold" lengthAdjust="spacing" textLength="88.2109" x="10" y="330.8779">move_right</text><rect fill="none" height="26.2969" style="stroke:#181818;stroke-width:0.5;" width="21.7305" x="40" y="344.1797"/><text fill="#000000" font-family="sans-serif" font-size="14" lengthAdjust="spacing" textLength="11.7305" x="45" y="362.1748">&gt;</text><ellipse cx="14" cy="357.3281" fill="none" rx="4" ry="4" style="stroke:#181818;stroke-width:2.0;"/><ellipse cx="91.7305" cy="357.3281" fill="#181818" rx="4" ry="4" style="stroke:#181818;stroke-width:1.0;"/><line style="stroke:#181818;stroke-width:1.5;" x1="18" x2="40" y1="357.3281" y2="357.3281"/><line style="stroke:#181818;stroke-width:1.5;" x1="61.7305" x2="87.7305" y1="357.3281" y2="357.3281"/><path d="M72.7305,357.3281 L72.7305,354.3281 L78.7305,357.3281 L72.7305,360.3281 L72.7305,357.3281 " fill="#181818" style="stroke:#181818;stroke-width:1.5;"/><path d="M10,390.4766 L10,415.6094 L297.3223,415.6094 L297.3223,400.4766 L287.3223,390.4766 L10,390.4766 " fill="#FEFFDD" style="stroke:#181818;stroke-width:0.5;"/><path d="M287.3223,390.4766 L287.3223,400.4766 L297.3223,400.4766 L287.3223,390.4766 " fill="#FEFFDD" style="stroke:#181818;stroke-width:0.5;"/><text fill="#000000" font-family="sans-serif" font-size="13" lengthAdjust="spacing" textLength="258.0576" x="20.1323" y="407.5435">Move the pointer to the left by one cell.</text><text fill="#000000" font-family="sans-serif" font-size="14" font-weight="bold" lengthAdjust="spacing" textLength="76.9043" x="10" y="443.6045">move_left</text><rect fill="none" height="26.2969" style="stroke:#181818;stroke-width:0.5;" width="21.7305" x="40" y="456.9063"/><text fill="#000000" font-family="sans-serif" font-size="14" lengthAdjust="spacing" textLength="11.7305" x="45" y="474.9014">&lt;</text><ellipse cx="14" cy="470.0547" fill="none" rx="4" ry="4" style="stroke:#181818;stroke-width:2.0;"/><ellipse cx="91.7305" cy="470.0547" fill="#181818" rx="4" ry="4" style="stroke:#181818;stroke-width:1.0;"/><line style="stroke:#181818;stroke-width:1.5;" x1="18" x2="40" y1="470.0547" y2="470.0547"/><line style="stroke:#181818;stroke-width:1.5;" x1="61.7305" x2="87.7305" y1="470.0547" y2="470.0547"/><path d="M72.7305,470.0547 L72.7305,467.0547 L78.7305,470.0547 L72.7305,473.0547 L72.7305,470.0547 " fill="#181818" style="stroke:#181818;stroke-width:1.5;"/><path d="M10,503.2031 L10,528.3359 L371.7231,528.3359 L371.7231,513.2031 L361.7231,503.2031 L10,503.2031 " fill="#FEFFDD" style="stroke:#181818;stroke-width:0.5;"/><path d="M361.7231,503.2031 L361.7231,513.2031 L371.7231,513.2031 L361.7231,503.2031 " fill="#FEFFDD" style="stroke:#181818;stroke-width:0.5;"/><text fill="#000000" font-family="sans-serif" font-size="13" lengthAdjust="spacing" textLength="332.4585" x="20.1323" y="520.27">Output the value at the current cell as a character.</text><text fill="#000000" font-family="sans-serif" font-size="14" font-weight="bold" lengthAdjust="spacing" textLength="52.958" x="10" y="556.3311">output</text><rect fill="none" height="26.2969" style="stroke:#181818;stroke-width:0.5;" width="14.4502" x="40" y="569.6328"/><text fill="#000000" font-family="sans-serif" font-size="14" lengthAdjust="spacing" textLength="4.4502" x="45" y="587.6279">.</text><ellipse cx="14" cy="582.7813" fill="none" rx="4" ry="4" style="stroke:#181818;stroke-width:2.0;"/><ellipse cx="84.4502" cy="582.7813" fill="#181818" rx="4" ry="4" style="stroke:#181818;stroke-width:1.0;"/><line style="stroke:#181818;stroke-width:1.5;" x1="18" x2="40" y1="582.7813" y2="582.7813"/><line style="stroke:#181818;stroke-width:1.5;" x1="54.4502" x2="80.4502" y1="582.7813" y2="582.7813"/><path d="M65.4502,582.7813 L65.4502,579.7813 L71.4502,582.7813 L65.4502,585.7813 L65.4502,582.7813 " fill="#181818" style="stroke:#181818;stroke-width:1.5;"/><path d="M10,615.9297 L10,641.0625 L425.5957,641.0625 L425.5957,625.9297 L415.5957,615.9297 L10,615.9297 " fill="#FEFFDD" style="stroke:#181818;stroke-width:0.5;"/><path d="M415.5957,615.9297 L415.5957,625.9297 L425.5957,625.9297 L415.5957,615.9297 " fill="#FEFFDD" style="stroke:#181818;stroke-width:0.5;"/><text fill="#000000" font-family="sans-serif" font-size="13" lengthAdjust="spacing" textLength="386.3311" x="20.1323" y="632.9966">Read a character from input and store it in the current cell.</text><text fill="#000000" font-family="sans-serif" font-size="14" font-weight="bold" lengthAdjust="spacing" textLength="41.4463" x="10" y="669.0576">input</text><rect fill="none" height="26.2969" style="stroke:#181818;stroke-width:0.5;" width="14.4502" x="40" y="682.3594"/><text fill="#000000" font-family="sans-serif" font-size="14" lengthAdjust="spacing" textLength="4.4502" x="45" y="700.3545">,</text><ellipse cx="14" cy="695.5078" fill="none" rx="4" ry="4" style="stroke:#181818;stroke-width:2.0;"/><ellipse cx="84.4502" cy="695.5078" fill="#181818" rx="4" ry="4" style="stroke:#181818;stroke-width:1.0;"/><line style="stroke:#181818;stroke-width:1.5;" x1="18" x2="40" y1="695.5078" y2="695.5078"/><line style="stroke:#181818;stroke-width:1.5;" x1="54.4502" x2="80.4502" y1="695.5078" y2="695.5078"/><path d="M65.4502,695.5078 L65.4502,692.5078 L71.4502,695.5078 L65.4502,698.5078 L65.4502,695.5078 " fill="#181818" style="stroke:#181818;stroke-width:1.5;"/><path d="M10,728.6563 L10,753.7891 L531.1699,753.7891 L531.1699,738.6563 L521.1699,728.6563 L10,728.6563 " fill="#FEFFDD" style="stroke:#181818;stroke-width:0.5;"/><path d="M521.1699,728.6563 L521.1699,738.6563 L531.1699,738.6563 L521.1699,728.6563 " fill="#FEFFDD" style="stroke:#181818;stroke-width:0.5;"/><text fill="#000000" font-family="sans-serif" font-size="13" lengthAdjust="spacing" textLength="491.9053" x="20.1323" y="745.7231">Marks the start of a loop. The nearest loop_end instruction will refer to this.</text><text fill="#000000" font-family="sans-serif" font-size="14" font-weight="bold" lengthAdjust="spacing" textLength="79.126" x="10" y="781.7842">loop_start</text><rect fill="none" height="26.2969" style="stroke:#181818;stroke-width:0.5;" width="15.4619" x="40" y="795.0859"/><text fill="#000000" font-family="sans-serif" font-size="14" lengthAdjust="spacing" textLength="5.4619" x="45" y="813.0811">[</text><ellipse cx="14" cy="808.2344" fill="none" rx="4" ry="4" style="stroke:#181818;stroke-width:2.0;"/><ellipse cx="85.4619" cy="808.2344" fill="#181818" rx="4" ry="4" style="stroke:#181818;stroke-width:1.0;"/><line style="stroke:#181818;stroke-width:1.5;" x1="18" x2="40" y1="808.2344" y2="808.2344"/><line style="stroke:#181818;stroke-width:1.5;" x1="55.4619" x2="81.4619" y1="808.2344" y2="808.2344"/><path d="M66.4619,808.2344 L66.4619,805.2344 L72.4619,808.2344 L66.4619,811.2344 L66.4619,808.2344 " fill="#181818" style="stroke:#181818;stroke-width:1.5;"/><path d="M10,841.3828 L10,866.5156 L692.9336,866.5156 L692.9336,851.3828 L682.9336,841.3828 L10,841.3828 " fill="#FEFFDD" style="stroke:#181818;stroke-width:0.5;"/><path d="M682.9336,841.3828 L682.9336,851.3828 L692.9336,851.3828 L682.9336,841.3828 " fill="#FEFFDD" style="stroke:#181818;stroke-width:0.5;"/><text fill="#000000" font-family="sans-serif" font-size="13" lengthAdjust="spacing" textLength="653.6689" x="20.1323" y="858.4497">If the value at the current cell is not zero, then jump to the instruction after the matching loop start.</text><text fill="#000000" font-family="sans-serif" font-size="14" font-weight="bold" lengthAdjust="spacing" textLength="70.54" x="10" y="894.5107">loop_end</text><rect fill="none" height="26.2969" style="stroke:#181818;stroke-width:0.5;" width="15.4619" x="40" y="907.8125"/><text fill="#000000" font-family="sans-serif" font-size="14" lengthAdjust="spacing" textLength="5.4619" x="45" y="925.8076">]</text><ellipse cx="14" cy="920.9609" fill="none" rx="4" ry="4" style="stroke:#181818;stroke-width:2.0;"/><ellipse cx="85.4619" cy="920.9609" fill="#181818" rx="4" ry="4" style="stroke:#181818;stroke-width:1.0;"/><line style="stroke:#181818;stroke-width:1.5;" x1="18" x2="40" y1="920.9609" y2="920.9609"/><line style="stroke:#181818;stroke-width:1.5;" x1="55.4619" x2="81.4619" y1="920.9609" y2="920.9609"/><path d="M66.4619,920.9609 L66.4619,917.9609 L72.4619,920.9609 L66.4619,923.9609 L66.4619,920.9609 " fill="#181818" style="stroke:#181818;stroke-width:1.5;"/><path d="M10,954.1094 L10,979.2422 L732.4731,979.2422 L732.4731,964.1094 L722.4731,954.1094 L10,954.1094 " fill="#FEFFDD" style="stroke:#181818;stroke-width:0.5;"/><path d="M722.4731,954.1094 L722.4731,964.1094 L732.4731,964.1094 L722.4731,954.1094 " fill="#FEFFDD" style="stroke:#181818;stroke-width:0.5;"/><text fill="#000000" font-family="sans-serif" font-size="13" lengthAdjust="spacing" textLength="693.2085" x="20.1323" y="971.1763">A loop is a sequence of statements that are executed repeatedly until the value at the current cell is zero.</text><text fill="#000000" font-family="sans-serif" font-size="14" font-weight="bold" lengthAdjust="spacing" textLength="34.0566" x="10" y="1007.2373">loop</text><line style="stroke:#181818;stroke-width:1.5;" x1="40" x2="40" y1="1061.6875" y2="1061.6875"/><rect fill="#F1F1F1" height="26.2969" rx="5" ry="5" style="stroke:#181818;stroke-width:1.5;" width="79.5146" x="40" y="1048.5391"/><text fill="#000000" font-family="sans-serif" font-size="14" lengthAdjust="spacing" textLength="69.5146" x="45" y="1066.5342">loop_start</text><line style="stroke:#181818;stroke-width:1.5;" x1="119.5146" x2="139.5146" y1="1061.6875" y2="1061.6875"/><path d="M147.5146,1053.6875 C147.5146,1059.6875 145.5146,1061.6875 139.5146,1061.6875 " fill="none" style="stroke:#181818;stroke-width:1.5;"/><line style="stroke:#181818;stroke-width:1.5;" x1="147.5146" x2="147.5146" y1="1033.5391" y2="1053.6875"/><path d="M147.5146,1033.5391 C147.5146,1027.5391 149.5146,1025.5391 155.5146,1025.5391 " fill="none" style="stroke:#181818;stroke-width:1.5;"/><line style="stroke:#181818;stroke-width:1.5;" x1="155.5146" x2="265.5928" y1="1025.5391" y2="1025.5391"/><path d="M197.5459,1025.5391 L197.5459,1022.5391 L203.5459,1025.5391 L197.5459,1028.5391 L197.5459,1025.5391 " fill="#181818" style="stroke:#181818;stroke-width:1.5;"/><path d="M273.5928,1053.6875 C273.5928,1059.6875 275.5928,1061.6875 281.5928,1061.6875 " fill="none" style="stroke:#181818;stroke-width:1.5;"/><line style="stroke:#181818;stroke-width:1.5;" x1="273.5928" x2="273.5928" y1="1033.5391" y2="1053.6875"/><path d="M265.5928,1025.5391 C271.5928,1025.5391 273.5928,1027.5391 273.5928,1033.5391 " fill="none" style="stroke:#181818;stroke-width:1.5;"/><line style="stroke:#181818;stroke-width:1.5;" x1="139.5146" x2="154.5146" y1="1061.6875" y2="1061.6875"/><line style="stroke:#181818;stroke-width:1.5;" x1="266.5928" x2="281.5928" y1="1061.6875" y2="1061.6875"/><path d="M162.5146,1053.6875 C162.5146,1059.6875 164.5146,1061.6875 170.5146,1061.6875 " fill="none" style="stroke:#181818;stroke-width:1.5;"/><line style="stroke:#181818;stroke-width:1.5;" x1="162.5146" x2="162.5146" y1="1049.5391" y2="1053.6875"/><path d="M162.5146,1049.5391 C162.5146,1043.5391 164.5146,1041.5391 170.5146,1041.5391 " fill="none" style="stroke:#181818;stroke-width:1.5;"/><line style="stroke:#181818;stroke-width:1.5;" x1="169.5146" x2="251.5928" y1="1041.5391" y2="1041.5391"/><path d="M216.7615,1041.5391 L216.7615,1038.5391 L210.7615,1041.5391 L216.7615,1044.5391 L216.7615,1041.5391 " fill="#181818" style="stroke:#181818;stroke-width:1.5;"/><path d="M258.5928,1053.6875 C258.5928,1059.6875 256.5928,1061.6875 250.5928,1061.6875 " fill="none" style="stroke:#181818;stroke-width:1.5;"/><line style="stroke:#181818;stroke-width:1.5;" x1="258.5928" x2="258.5928" y1="1049.5391" y2="1053.6875"/><path d="M250.5928,1041.5391 C256.5928,1041.5391 258.5928,1043.5391 258.5928,1049.5391 " fill="none" style="stroke:#181818;stroke-width:1.5;"/><line style="stroke:#181818;stroke-width:1.5;" x1="154.5146" x2="169.5146" y1="1061.6875" y2="1061.6875"/><line style="stroke:#181818;stroke-width:1.5;" x1="251.5928" x2="266.5928" y1="1061.6875" y2="1061.6875"/><rect fill="#F1F1F1" height="26.2969" rx="5" ry="5" style="stroke:#181818;stroke-width:1.5;" width="82.0781" x="169.5146" y="1048.5391"/><text fill="#000000" font-family="sans-serif" font-size="14" lengthAdjust="spacing" textLength="72.0781" x="174.5146" y="1066.5342">statement</text><line style="stroke:#181818;stroke-width:1.5;" x1="281.5928" x2="301.5928" y1="1061.6875" y2="1061.6875"/><rect fill="#F1F1F1" height="26.2969" rx="5" ry="5" style="stroke:#181818;stroke-width:1.5;" width="73.2803" x="301.5928" y="1048.5391"/><text fill="#000000" font-family="sans-serif" font-size="14" lengthAdjust="spacing" textLength="63.2803" x="306.5928" y="1066.5342">loop_end</text><ellipse cx="14" cy="1061.6875" fill="none" rx="4" ry="4" style="stroke:#181818;stroke-width:2.0;"/><ellipse cx="404.873" cy="1061.6875" fill="#181818" rx="4" ry="4" style="stroke:#181818;stroke-width:1.0;"/><line style="stroke:#181818;stroke-width:1.5;" x1="18" x2="40" y1="1061.6875" y2="1061.6875"/><line style="stroke:#181818;stroke-width:1.5;" x1="374.873" x2="400.873" y1="1061.6875" y2="1061.6875"/><path d="M385.873,1061.6875 L385.873,1058.6875 L391.873,1061.6875 L385.873,1064.6875 L385.873,1061.6875 " fill="#181818" style="stroke:#181818;stroke-width:1.5;"/><path d="M10,1094.8359 L10,1119.9688 L470.4609,1119.9688 L470.4609,1104.8359 L460.4609,1094.8359 L10,1094.8359 " fill="#FEFFDD" style="stroke:#181818;stroke-width:0.5;"/><path d="M460.4609,1094.8359 L460.4609,1104.8359 L470.4609,1104.8359 L460.4609,1094.8359 " fill="#FEFFDD" style="stroke:#181818;stroke-width:0.5;"/><text fill="#000000" font-family="sans-serif" font-size="13" lengthAdjust="spacing" textLength="435.3286" x="20.1323" y="1111.9028">A statement is a single instruction that can be executed, or a loop.</text><text fill="#000000" font-family="sans-serif" font-size="14" font-weight="bold" lengthAdjust="spacing" textLength="81.4023" x="10" y="1147.9639">statement</text><rect fill="#F1F1F1" height="26.2969" rx="5" ry="5" style="stroke:#181818;stroke-width:1.5;" width="81.4424" x="64" y="1161.2656"/><text fill="#000000" font-family="sans-serif" font-size="14" lengthAdjust="spacing" textLength="71.4424" x="69" y="1179.2607">increment</text><line style="stroke:#181818;stroke-width:1.5;" x1="40" x2="64" y1="1174.4141" y2="1174.4141"/><line style="stroke:#181818;stroke-width:1.5;" x1="145.4424" x2="176.9961" y1="1174.4141" y2="1174.4141"/><rect fill="#F1F1F1" height="26.2969" rx="5" ry="5" style="stroke:#181818;stroke-width:1.5;" width="86.1797" x="64" y="1197.5625"/><text fill="#000000" font-family="sans-serif" font-size="14" lengthAdjust="spacing" textLength="76.1797" x="69" y="1215.5576">decrement</text><path d="M52,1198.7109 C52,1207.7109 55,1210.7109 64,1210.7109 " fill="none" style="stroke:#181818;stroke-width:1.5;"/><line style="stroke:#181818;stroke-width:1.5;" x1="150.1797" x2="152.9961" y1="1210.7109" y2="1210.7109"/><path d="M164.9961,1198.7109 C164.9961,1207.7109 161.9961,1210.7109 152.9961,1210.7109 " fill="none" style="stroke:#181818;stroke-width:1.5;"/><rect fill="#F1F1F1" height="26.2969" rx="5" ry="5" style="stroke:#181818;stroke-width:1.5;" width="88.9961" x="64" y="1233.8594"/><text fill="#000000" font-family="sans-serif" font-size="14" lengthAdjust="spacing" textLength="78.9961" x="69" y="1251.8545">move_right</text><path d="M52,1235.0078 C52,1244.0078 55,1247.0078 64,1247.0078 " fill="none" style="stroke:#181818;stroke-width:1.5;"/><line style="stroke:#181818;stroke-width:1.5;" x1="152.9961" x2="152.9961" y1="1247.0078" y2="1247.0078"/><path d="M164.9961,1235.0078 C164.9961,1244.0078 161.9961,1247.0078 152.9961,1247.0078 " fill="none" style="stroke:#181818;stroke-width:1.5;"/><rect fill="#F1F1F1" height="26.2969" rx="5" ry="5" style="stroke:#181818;stroke-width:1.5;" width="79.0225" x="64" y="1270.1563"/><text fill="#000000" font-family="sans-serif" font-size="14" lengthAdjust="spacing" textLength="69.0225" x="69" y="1288.1514">move_left</text><path d="M52,1271.3047 C52,1280.3047 55,1283.3047 64,1283.3047 " fill="none" style="stroke:#181818;stroke-width:1.5;"/><line style="stroke:#181818;stroke-width:1.5;" x1="143.0225" x2="152.9961" y1="1283.3047" y2="1283.3047"/><path d="M164.9961,1271.3047 C164.9961,1280.3047 161.9961,1283.3047 152.9961,1283.3047 " fill="none" style="stroke:#181818;stroke-width:1.5;"/><rect fill="#F1F1F1" height="26.2969" rx="5" ry="5" style="stroke:#181818;stroke-width:1.5;" width="56.1768" x="64" y="1306.4531"/><text fill="#000000" font-family="sans-serif" font-size="14" lengthAdjust="spacing" textLength="46.1768" x="69" y="1324.4482">output</text><path d="M52,1307.6016 C52,1316.6016 55,1319.6016 64,1319.6016 " fill="none" style="stroke:#181818;stroke-width:1.5;"/><line style="stroke:#181818;stroke-width:1.5;" x1="120.1768" x2="152.9961" y1="1319.6016" y2="1319.6016"/><path d="M134.5864,1319.6016 L134.5864,1316.6016 L140.5864,1319.6016 L134.5864,1322.6016 L134.5864,1319.6016 " fill="#181818" style="stroke:#181818;stroke-width:1.5;"/><path d="M164.9961,1307.6016 C164.9961,1316.6016 161.9961,1319.6016 152.9961,1319.6016 " fill="none" style="stroke:#181818;stroke-width:1.5;"/><rect fill="#F1F1F1" height="26.2969" rx="5" ry="5" style="stroke:#181818;stroke-width:1.5;" width="46.0117" x="64" y="1342.75"/><text fill="#000000" font-family="sans-serif" font-size="14" lengthAdjust="spacing" textLength="36.0117" x="69" y="1360.7451">input</text><path d="M52,1343.8984 C52,1352.8984 55,1355.8984 64,1355.8984 " fill="none" style="stroke:#181818;stroke-width:1.5;"/><line style="stroke:#181818;stroke-width:1.5;" x1="110.0117" x2="152.9961" y1="1355.8984" y2="1355.8984"/><path d="M129.5039,1355.8984 L129.5039,1352.8984 L135.5039,1355.8984 L129.5039,1358.8984 L129.5039,1355.8984 " fill="#181818" style="stroke:#181818;stroke-width:1.5;"/><path d="M164.9961,1343.8984 C164.9961,1352.8984 161.9961,1355.8984 152.9961,1355.8984 " fill="none" style="stroke:#181818;stroke-width:1.5;"/><rect fill="#F1F1F1" height="26.2969" rx="5" ry="5" style="stroke:#181818;stroke-width:1.5;" width="39.9072" x="64" y="1379.0469"/><text fill="#000000" font-family="sans-serif" font-size="14" lengthAdjust="spacing" textLength="29.9072" x="69" y="1397.042">loop</text><line style="stroke:#181818;stroke-width:1.5;" x1="103.9072" x2="152.9961" y1="1392.1953" y2="1392.1953"/><path d="M126.4517,1392.1953 L126.4517,1389.1953 L132.4517,1392.1953 L126.4517,1395.1953 L126.4517,1392.1953 " fill="#181818" style="stroke:#181818;stroke-width:1.5;"/><path d="M52,1380.1953 C52,1389.1953 55,1392.1953 64,1392.1953 " fill="none" style="stroke:#181818;stroke-width:1.5;"/><line style="stroke:#181818;stroke-width:1.5;" x1="52" x2="52" y1="1186.4141" y2="1380.1953"/><path d="M40,1174.4141 C49,1174.4141 52,1177.4141 52,1186.4141 " fill="none" style="stroke:#181818;stroke-width:1.5;"/><path d="M164.9961,1380.1953 C164.9961,1389.1953 161.9961,1392.1953 152.9961,1392.1953 " fill="none" style="stroke:#181818;stroke-width:1.5;"/><line style="stroke:#181818;stroke-width:1.5;" x1="164.9961" x2="164.9961" y1="1186.4141" y2="1380.1953"/><path d="M164.9961,1186.4141 C164.9961,1177.4141 167.9961,1174.4141 176.9961,1174.4141 " fill="none" style="stroke:#181818;stroke-width:1.5;"/><ellipse cx="14" cy="1174.4141" fill="none" rx="4" ry="4" style="stroke:#181818;stroke-width:2.0;"/><ellipse cx="206.9961" cy="1174.4141" fill="#181818" rx="4" ry="4" style="stroke:#181818;stroke-width:1.0;"/><line style="stroke:#181818;stroke-width:1.5;" x1="18" x2="40" y1="1174.4141" y2="1174.4141"/><line style="stroke:#181818;stroke-width:1.5;" x1="176.9961" x2="202.9961" y1="1174.4141" y2="1174.4141"/><path d="M187.9961,1174.4141 L187.9961,1171.4141 L193.9961,1174.4141 L187.9961,1177.4141 L187.9961,1174.4141 " fill="#181818" style="stroke:#181818;stroke-width:1.5;"/><path d="M10,1425.3438 L10,1450.4766 L300.0898,1450.4766 L300.0898,1435.3438 L290.0898,1425.3438 L10,1425.3438 " fill="#FEFFDD" style="stroke:#181818;stroke-width:0.5;"/><path d="M290.0898,1425.3438 L290.0898,1435.3438 L300.0898,1435.3438 L290.0898,1425.3438 " fill="#FEFFDD" style="stroke:#181818;stroke-width:0.5;"/><text fill="#000000" font-family="sans-serif" font-size="13" lengthAdjust="spacing" textLength="260.8252" x="20.1323" y="1442.4106">A program is a sequence of statements.</text><text fill="#000000" font-family="sans-serif" font-size="14" font-weight="bold" lengthAdjust="spacing" textLength="67.5049" x="10" y="1478.4717">program</text><path d="M48,1524.9219 C48,1530.9219 46,1532.9219 40,1532.9219 " fill="none" style="stroke:#181818;stroke-width:1.5;"/><line style="stroke:#181818;stroke-width:1.5;" x1="48" x2="48" y1="1504.7734" y2="1524.9219"/><path d="M48,1504.7734 C48,1498.7734 50,1496.7734 56,1496.7734 " fill="none" style="stroke:#181818;stroke-width:1.5;"/><line style="stroke:#181818;stroke-width:1.5;" x1="56" x2="166.0781" y1="1496.7734" y2="1496.7734"/><path d="M98.0313,1496.7734 L98.0313,1493.7734 L104.0313,1496.7734 L98.0313,1499.7734 L98.0313,1496.7734 " fill="#181818" style="stroke:#181818;stroke-width:1.5;"/><path d="M174.0781,1524.9219 C174.0781,1530.9219 176.0781,1532.9219 182.0781,1532.9219 " fill="none" style="stroke:#181818;stroke-width:1.5;"/><line style="stroke:#181818;stroke-width:1.5;" x1="174.0781" x2="174.0781" y1="1504.7734" y2="1524.9219"/><path d="M166.0781,1496.7734 C172.0781,1496.7734 174.0781,1498.7734 174.0781,1504.7734 " fill="none" style="stroke:#181818;stroke-width:1.5;"/><line style="stroke:#181818;stroke-width:1.5;" x1="40" x2="55" y1="1532.9219" y2="1532.9219"/><line style="stroke:#181818;stroke-width:1.5;" x1="167.0781" x2="182.0781" y1="1532.9219" y2="1532.9219"/><path d="M63,1524.9219 C63,1530.9219 65,1532.9219 71,1532.9219 " fill="none" style="stroke:#181818;stroke-width:1.5;"/><line style="stroke:#181818;stroke-width:1.5;" x1="63" x2="63" y1="1520.7734" y2="1524.9219"/><path d="M63,1520.7734 C63,1514.7734 65,1512.7734 71,1512.7734 " fill="none" style="stroke:#181818;stroke-width:1.5;"/><line style="stroke:#181818;stroke-width:1.5;" x1="70" x2="152.0781" y1="1512.7734" y2="1512.7734"/><path d="M117.2469,1512.7734 L117.2469,1509.7734 L111.2469,1512.7734 L117.2469,1515.7734 L117.2469,1512.7734 " fill="#181818" style="stroke:#181818;stroke-width:1.5;"/><path d="M159.0781,1524.9219 C159.0781,1530.9219 157.0781,1532.9219 151.0781,1532.9219 " fill="none" style="stroke:#181818;stroke-width:1.5;"/><line style="stroke:#181818;stroke-width:1.5;" x1="159.0781" x2="159.0781" y1="1520.7734" y2="1524.9219"/><path d="M151.0781,1512.7734 C157.0781,1512.7734 159.0781,1514.7734 159.0781,1520.7734 " fill="none" style="stroke:#181818;stroke-width:1.5;"/><line style="stroke:#181818;stroke-width:1.5;" x1="55" x2="70" y1="1532.9219" y2="1532.9219"/><line style="stroke:#181818;stroke-width:1.5;" x1="152.0781" x2="167.0781" y1="1532.9219" y2="1532.9219"/><rect fill="#F1F1F1" height="26.2969" rx="5" ry="5" style="stroke:#181818;stroke-width:1.5;" width="82.0781" x="70" y="1519.7734"/><text fill="#000000" font-family="sans-serif" font-size="14" lengthAdjust="spacing" textLength="72.0781" x="75" y="1537.7686">statement</text><ellipse cx="14" cy="1532.9219" fill="none" rx="4" ry="4" style="stroke:#181818;stroke-width:2.0;"/><ellipse cx="212.0781" cy="1532.9219" fill="#181818" rx="4" ry="4" style="stroke:#181818;stroke-width:1.0;"/><line style="stroke:#181818;stroke-width:1.5;" x1="18" x2="40" y1="1532.9219" y2="1532.9219"/><line style="stroke:#181818;stroke-width:1.5;" x1="182.0781" x2="208.0781" y1="1532.9219" y2="1532.9219"/><path d="M193.0781,1532.9219 L193.0781,1529.9219 L199.0781,1532.9219 L193.0781,1535.9219 L193.0781,1532.9219 " fill="#181818" style="stroke:#181818;stroke-width:1.5;"/><!--SRC=[bLHVRzem47_FfpZrgNI0Q8TGnyRKjQnL6QXLQVioJPLnBk3DiJF7fcDZttrdun2cQKDxZE_kz-_id9MM6OipbILMM8bmlq0uluGhm_AS6PWMo4KcEBD2goGvF89hnGtcg2nOQbqowH3OveCxOto1evGmMu5Ms8QZHYAs8mCuU77mEk0CyRznKjp1QKMSYLvYc2gqK1ODM1q-ZPWlR9mEI04Yf-wdJOamtkx1a9Zz1I9K2E5DHBXnjd3xhB0I6F05CumJIG3Jcpb2QaUaEsJfRXjaHkSWb6zZAeNIQeCWB1tzmH3JZeZDoXqpNyhG6vODEYDygNNH3jjMo0oMDfmy8J48LLhZkDyuF0lIRJ2hCX5bu0Yz6pGY-XY9hhCz0OWIbBRm7Ork-gg2poulghHtULaMra2dERDy8TGywDiug2LukIJWKnJmRjCaVCubVdMeE7gxD6N3nV4na30o3FWDkREOahi2gPpA5JXbXTplmUlVQY3-Eeqc_DXo_Mnk8wtKRMjH8jcIl_iEyZXJCAiLDa6RQcD4MeCCe7vPQwXVnnfshddy21Ts3V6-hUE5MWVKIbvXz9pU_R_o2xQhli6kMm8v8wlXLvBSIgRimsGCIpIbztNSFkcSTDkzmodv6pa9dHvqNlMFk_sNf_1mVm6-t4WEhsx7K6fdY3SL58kOEPzB8ncn9OCxlw0S-t1Je1eDFrG7y5ujXT7A2qb6ZvEweTTjdTDRcQ8X9V0uIOQOCISjJN2TKlvzOhzidIPZfkQEpGaRLNAX2TUig3Rz1G00]--></g></svg>
