<?xml version="1.0" encoding="us-ascii" standalone="no"?><svg xmlns="http://www.w3.org/2000/svg" xmlns:xlink="http://www.w3.org/1999/xlink" contentStyleType="text/css" height="1573px" preserveAspectRatio="none" style="width:732px;height:1573px;background:#FFFFFF;" version="1.1" viewBox="0 0 732 1573" width="732px" zoomAndPan="magnify"><defs/><g><text fill="#000000" font-family="sans-serif" font-size="14" font-weight="bold" lengthAdjust="spacing" textLength="248" x="240.5" y="32.9951">The BF Grammar Specification</text><path d="M10,52.2969 L10,77.4297 L337,77.4297 L337,62.2969 L327,52.2969 L10,52.2969 " fill="#FEFFDD" style="stroke:#181818;stroke-width:0.5;"/><path d="M327,52.2969 L327,62.2969 L337,62.2969 L327,52.2969 " fill="#FEFFDD" style="stroke:#181818;stroke-width:0.5;"/><text fill="#000000" font-family="sans-serif" font-size="13" lengthAdjust="spacing" textLength="298" x="20" y="69.3638">Increment the value at the current cell by one.</text><text fill="#000000" font-family="sans-serif" font-size="14" font-weight="bold" lengthAdjust="spacing" textLength="82" x="10" y="105.4248">increment</text><rect fill="none" height="26.2969" style="stroke:#181818;stroke-width:0.5;" width="21" x="40" y="118.7266"/><text fill="#000000" font-family="sans-serif" font-size="14" lengthAdjust="spacing" textLength="11" x="45" y="136.7217">+</text><ellipse cx="14" cy="131.875" fill="none" rx="4" ry="4" style="stroke:#181818;stroke-width:2.0;"/><ellipse cx="91" cy="131.875" fill="#181818" rx="4" ry="4" style="stroke:#181818;stroke-width:1.0;"/><line style="stroke:#181818;stroke-width:1.5;" x1="18" x2="40" y1="131.875" y2="131.875"/><line style="stroke:#181818;stroke-width:1.5;" x1="61" x2="87" y1="131.875" y2="131.875"/><path d="M72,131.875 L72,128.875 L78,131.875 L72,134.875 L72,131.875 " fill="#181818" style="stroke:#181818;stroke-width:1.5;"/><path d="M10,165.0234 L10,190.1563 L344,190.1563 L344,175.0234 L334,165.0234 L10,165.0234 " fill="#FEFFDD" style="stroke:#181818;stroke-width:0.5;"/><path d="M334,165.0234 L334,175.0234 L344,175.0234 L334,165.0234 " fill="#FEFFDD" style="stroke:#181818;stroke-width:0.5;"/><text fill="#000000" font-family="sans-serif" font-size="13" lengthAdjust="spacing" textLength="305" x="20" y="182.0903">Decrement the value at the current cell by one.</text><text fill="#000000" font-family="sans-serif" font-size="14" font-weight="bold" lengthAdjust="spacing" textLength="86" x="10" y="218.1514">decrement</text><rect fill="none" height="26.2969" style="stroke:#181818;stroke-width:0.5;" width="16" x="40" y="231.4531"/><text fill="#000000" font-family="sans-serif" font-size="14" lengthAdjust="spacing" textLength="6" x="45" y="249.4482">-</text><ellipse cx="14" cy="244.6016" fill="none" rx="4" ry="4" style="stroke:#181818;stroke-width:2.0;"/><ellipse cx="86" cy="244.6016" fill="#181818" rx="4" ry="4" style="stroke:#181818;stroke-width:1.0;"/><line style="stroke:#181818;stroke-width:1.5;" x1="18" x2="40" y1="244.6016" y2="244.6016"/><line style="stroke:#181818;stroke-width:1.5;" x1="56" x2="82" y1="244.6016" y2="244.6016"/><path d="M67,244.6016 L67,241.6016 L73,244.6016 L67,247.6016 L67,244.6016 " fill="#181818" style="stroke:#181818;stroke-width:1.5;"/><path d="M10,277.75 L10,302.8828 L299,302.8828 L299,287.75 L289,277.75 L10,277.75 " fill="#FEFFDD" style="stroke:#181818;stroke-width:0.5;"/><path d="M289,277.75 L289,287.75 L299,287.75 L289,277.75 " fill="#FEFFDD" style="stroke:#181818;stroke-width:0.5;"/><text fill="#000000" font-family="sans-serif" font-size="13" lengthAdjust="spacing" textLength="260" x="20" y="294.8169">Move the pointer to the right by one cell.</text><text fill="#000000" font-family="sans-serif" font-size="14" font-weight="bold" lengthAdjust="spacing" textLength="90" x="10" y="330.8779">move_right</text><rect fill="none" height="26.2969" style="stroke:#181818;stroke-width:0.5;" width="21" x="40" y="344.1797"/><text fill="#000000" font-family="sans-serif" font-size="14" lengthAdjust="spacing" textLength="11" x="45" y="362.1748">&gt;</text><ellipse cx="14" cy="357.3281" fill="none" rx="4" ry="4" style="stroke:#181818;stroke-width:2.0;"/><ellipse cx="91" cy="357.3281" fill="#181818" rx="4" ry="4" style="stroke:#181818;stroke-width:1.0;"/><line style="stroke:#181818;stroke-width:1.5;" x1="18" x2="40" y1="357.3281" y2="357.3281"/><line style="stroke:#181818;stroke-width:1.5;" x1="61" x2="87" y1="357.3281" y2="357.3281"/><path d="M72,357.3281 L72,354.3281 L78,357.3281 L72,360.3281 L72,357.3281 " fill="#181818" style="stroke:#181818;stroke-width:1.5;"/><path d="M10,390.4766 L10,415.6094 L291,415.6094 L291,400.4766 L281,390.4766 L10,390.4766 " fill="#FEFFDD" style="stroke:#181818;stroke-width:0.5;"/><path d="M281,390.4766 L281,400.4766 L291,400.4766 L281,390.4766 " fill="#FEFFDD" style="stroke:#181818;stroke-width:0.5;"/><text fill="#000000" font-family="sans-serif" font-size="13" lengthAdjust="spacing" textLength="252" x="20" y="407.5435">Move the pointer to the left by one cell.</text><text fill="#000000" font-family="sans-serif" font-size="14" font-weight="bold" lengthAdjust="spacing" textLength="79" x="10" y="443.6045">move_left</text><rect fill="none" height="26.2969" style="stroke:#181818;stroke-width:0.5;" width="21" x="40" y="456.9063"/><text fill="#000000" font-family="sans-serif" font-size="14" lengthAdjust="spacing" textLength="11" x="45" y="474.9014">&lt;</text><ellipse cx="14" cy="470.0547" fill="none" rx="4" ry="4" style="stroke:#181818;stroke-width:2.0;"/><ellipse cx="91" cy="470.0547" fill="#181818" rx="4" ry="4" style="stroke:#181818;stroke-width:1.0;"/><line style="stroke:#181818;stroke-width:1.5;" x1="18" x2="40" y1="470.0547" y2="470.0547"/><line style="stroke:#181818;stroke-width:1.5;" x1="61" x2="87" y1="470.0547" y2="470.0547"/><path d="M72,470.0547 L72,467.0547 L78,470.0547 L72,473.0547 L72,470.0547 " fill="#181818" style="stroke:#181818;stroke-width:1.5;"/><path d="M10,503.2031 L10,528.3359 L364,528.3359 L364,513.2031 L354,503.2031 L10,503.2031 " fill="#FEFFDD" style="stroke:#181818;stroke-width:0.5;"/><path d="M354,503.2031 L354,513.2031 L364,513.2031 L354,503.2031 " fill="#FEFFDD" style="stroke:#181818;stroke-width:0.5;"/><text fill="#000000" font-family="sans-serif" font-size="13" lengthAdjust="spacing" textLength="325" x="20" y="520.27">Output the value at the current cell as a character.</text><text fill="#000000" font-family="sans-serif" font-size="14" font-weight="bold" lengthAdjust="spacing" textLength="56" x="10" y="556.3311">output</text><rect fill="none" height="26.2969" style="stroke:#181818;stroke-width:0.5;" width="15" x="40" y="569.6328"/><text fill="#000000" font-family="sans-serif" font-size="14" lengthAdjust="spacing" textLength="5" x="45" y="587.6279">.</text><ellipse cx="14" cy="582.7813" fill="none" rx="4" ry="4" style="stroke:#181818;stroke-width:2.0;"/><ellipse cx="85" cy="582.7813" fill="#181818" rx="4" ry="4" style="stroke:#181818;stroke-width:1.0;"/><line style="stroke:#181818;stroke-width:1.5;" x1="18" x2="40" y1="582.7813" y2="582.7813"/><line style="stroke:#181818;stroke-width:1.5;" x1="55" x2="81" y1="582.7813" y2="582.7813"/><path d="M66,582.7813 L66,579.7813 L72,582.7813 L66,585.7813 L66,582.7813 " fill="#181818" style="stroke:#181818;stroke-width:1.5;"/><path d="M10,615.9297 L10,641.0625 L416,641.0625 L416,625.9297 L406,615.9297 L10,615.9297 " fill="#FEFFDD" style="stroke:#181818;stroke-width:0.5;"/><path d="M406,615.9297 L406,625.9297 L416,625.9297 L406,615.9297 " fill="#FEFFDD" style="stroke:#181818;stroke-width:0.5;"/><text fill="#000000" font-family="sans-serif" font-size="13" lengthAdjust="spacing" textLength="377" x="20" y="632.9966">Read a character from input and store it in the current cell.</text><text fill="#000000" font-family="sans-serif" font-size="14" font-weight="bold" lengthAdjust="spacing" textLength="43" x="10" y="669.0576">input</text><rect fill="none" height="26.2969" style="stroke:#181818;stroke-width:0.5;" width="14" x="40" y="682.3594"/><text fill="#000000" font-family="sans-serif" font-size="14" lengthAdjust="spacing" textLength="4" x="45" y="700.3545">,</text><ellipse cx="14" cy="695.5078" fill="none" rx="4" ry="4" style="stroke:#181818;stroke-width:2.0;"/><ellipse cx="84" cy="695.5078" fill="#181818" rx="4" ry="4" style="stroke:#181818;stroke-width:1.0;"/><line style="stroke:#181818;stroke-width:1.5;" x1="18" x2="40" y1="695.5078" y2="695.5078"/><line style="stroke:#181818;stroke-width:1.5;" x1="54" x2="80" y1="695.5078" y2="695.5078"/><path d="M65,695.5078 L65,692.5078 L71,695.5078 L65,698.5078 L65,695.5078 " fill="#181818" style="stroke:#181818;stroke-width:1.5;"/><path d="M10,728.6563 L10,753.7891 L520,753.7891 L520,738.6563 L510,728.6563 L10,728.6563 " fill="#FEFFDD" style="stroke:#181818;stroke-width:0.5;"/><path d="M510,728.6563 L510,738.6563 L520,738.6563 L510,728.6563 " fill="#FEFFDD" style="stroke:#181818;stroke-width:0.5;"/><text fill="#000000" font-family="sans-serif" font-size="13" lengthAdjust="spacing" textLength="481" x="20" y="745.7231">Marks the start of a loop. The nearest loop_end instruction will refer to this.</text><text fill="#000000" font-family="sans-serif" font-size="14" font-weight="bold" lengthAdjust="spacing" textLength="84" x="10" y="781.7842">loop_start</text><rect fill="none" height="26.2969" style="stroke:#181818;stroke-width:0.5;" width="15" x="40" y="795.0859"/><text fill="#000000" font-family="sans-serif" font-size="14" lengthAdjust="spacing" textLength="5" x="45" y="813.0811">[</text><ellipse cx="14" cy="808.2344" fill="none" rx="4" ry="4" style="stroke:#181818;stroke-width:2.0;"/><ellipse cx="85" cy="808.2344" fill="#181818" rx="4" ry="4" style="stroke:#181818;stroke-width:1.0;"/><line style="stroke:#181818;stroke-width:1.5;" x1="18" x2="40" y1="808.2344" y2="808.2344"/><line style="stroke:#181818;stroke-width:1.5;" x1="55" x2="81" y1="808.2344" y2="808.2344"/><path d="M66,808.2344 L66,805.2344 L72,808.2344 L66,811.2344 L66,808.2344 " fill="#181818" style="stroke:#181818;stroke-width:1.5;"/><path d="M10,841.3828 L10,866.5156 L678,866.5156 L678,851.3828 L668,841.3828 L10,841.3828 " fill="#FEFFDD" style="stroke:#181818;stroke-width:0.5;"/><path d="M668,841.3828 L668,851.3828 L678,851.3828 L668,841.3828 " fill="#FEFFDD" style="stroke:#181818;stroke-width:0.5;"/><text fill="#000000" font-family="sans-serif" font-size="13" lengthAdjust="spacing" textLength="639" x="20" y="858.4497">If the value at the current cell is not zero, then jump to the instruction after the matching loop start.</text><text fill="#000000" font-family="sans-serif" font-size="14" font-weight="bold" lengthAdjust="spacing" textLength="71" x="10" y="894.5107">loop_end</text><rect fill="none" height="26.2969" style="stroke:#181818;stroke-width:0.5;" width="15" x="40" y="907.8125"/><text fill="#000000" font-family="sans-serif" font-size="14" lengthAdjust="spacing" textLength="5" x="45" y="925.8076">]</text><ellipse cx="14" cy="920.9609" fill="none" rx="4" ry="4" style="stroke:#181818;stroke-width:2.0;"/><ellipse cx="85" cy="920.9609" fill="#181818" rx="4" ry="4" style="stroke:#181818;stroke-width:1.0;"/><line style="stroke:#181818;stroke-width:1.5;" x1="18" x2="40" y1="920.9609" y2="920.9609"/><line style="stroke:#181818;stroke-width:1.5;" x1="55" x2="81" y1="920.9609" y2="920.9609"/><path d="M66,920.9609 L66,917.9609 L72,920.9609 L66,923.9609 L66,920.9609 " fill="#181818" style="stroke:#181818;stroke-width:1.5;"/><path d="M10,954.1094 L10,979.2422 L720,979.2422 L720,964.1094 L710,954.1094 L10,954.1094 " fill="#FEFFDD" style="stroke:#181818;stroke-width:0.5;"/><path d="M710,954.1094 L710,964.1094 L720,964.1094 L710,954.1094 " fill="#FEFFDD" style="stroke:#181818;stroke-width:0.5;"/><text fill="#000000" font-family="sans-serif" font-size="13" lengthAdjust="spacing" textLength="681" x="20" y="971.1763">A loop is a sequence of statements that are executed repeatedly until the value at the current cell is zero.</text><text fill="#000000" font-family="sans-serif" font-size="14" font-weight="bold" lengthAdjust="spacing" textLength="35" x="10" y="1007.2373">loop</text><line style="stroke:#181818;stroke-width:1.5;" x1="40" x2="40" y1="1061.6875" y2="1061.6875"/><rect fill="#F1F1F1" height="26.2969" rx="5" ry="5" style="stroke:#181818;stroke-width:1.5;" width="84" x="40" y="1048.5391"/><text fill="#000000" font-family="sans-serif" font-size="14" lengthAdjust="spacing" textLength="74" x="45" y="1066.5342">loop_start</text><line style="stroke:#181818;stroke-width:1.5;" x1="124" x2="144" y1="1061.6875" y2="1061.6875"/><path d="M152,1053.6875 C152,1059.6875 150,1061.6875 144,1061.6875 " fill="none" style="stroke:#181818;stroke-width:1.5;"/><line style="stroke:#181818;stroke-width:1.5;" x1="152" x2="152" y1="1033.5391" y2="1053.6875"/><path d="M152,1033.5391 C152,1027.5391 154,1025.5391 160,1025.5391 " fill="none" style="stroke:#181818;stroke-width:1.5;"/><line style="stroke:#181818;stroke-width:1.5;" x1="160" x2="275" y1="1025.5391" y2="1025.5391"/><path d="M204,1025.5391 L204,1022.5391 L210,1025.5391 L204,1028.5391 L204,1025.5391 " fill="#181818" style="stroke:#181818;stroke-width:1.5;"/><path d="M283,1053.6875 C283,1059.6875 285,1061.6875 291,1061.6875 " fill="none" style="stroke:#181818;stroke-width:1.5;"/><line style="stroke:#181818;stroke-width:1.5;" x1="283" x2="283" y1="1033.5391" y2="1053.6875"/><path d="M275,1025.5391 C281,1025.5391 283,1027.5391 283,1033.5391 " fill="none" style="stroke:#181818;stroke-width:1.5;"/><line style="stroke:#181818;stroke-width:1.5;" x1="144" x2="159" y1="1061.6875" y2="1061.6875"/><line style="stroke:#181818;stroke-width:1.5;" x1="276" x2="291" y1="1061.6875" y2="1061.6875"/><path d="M167,1053.6875 C167,1059.6875 169,1061.6875 175,1061.6875 " fill="none" style="stroke:#181818;stroke-width:1.5;"/><line style="stroke:#181818;stroke-width:1.5;" x1="167" x2="167" y1="1049.5391" y2="1053.6875"/><path d="M167,1049.5391 C167,1043.5391 169,1041.5391 175,1041.5391 " fill="none" style="stroke:#181818;stroke-width:1.5;"/><line style="stroke:#181818;stroke-width:1.5;" x1="174" x2="261" y1="1041.5391" y2="1041.5391"/><path d="M224.2,1041.5391 L224.2,1038.5391 L218.2,1041.5391 L224.2,1044.5391 L224.2,1041.5391 " fill="#181818" style="stroke:#181818;stroke-width:1.5;"/><path d="M268,1053.6875 C268,1059.6875 266,1061.6875 260,1061.6875 " fill="none" style="stroke:#181818;stroke-width:1.5;"/><line style="stroke:#181818;stroke-width:1.5;" x1="268" x2="268" y1="1049.5391" y2="1053.6875"/><path d="M260,1041.5391 C266,1041.5391 268,1043.5391 268,1049.5391 " fill="none" style="stroke:#181818;stroke-width:1.5;"/><line style="stroke:#181818;stroke-width:1.5;" x1="159" x2="174" y1="1061.6875" y2="1061.6875"/><line style="stroke:#181818;stroke-width:1.5;" x1="261" x2="276" y1="1061.6875" y2="1061.6875"/><rect fill="#F1F1F1" height="26.2969" rx="5" ry="5" style="stroke:#181818;stroke-width:1.5;" width="87" x="174" y="1048.5391"/><text fill="#000000" font-family="sans-serif" font-size="14" lengthAdjust="spacing" textLength="77" x="179" y="1066.5342">statement</text><line style="stroke:#181818;stroke-width:1.5;" x1="291" x2="311" y1="1061.6875" y2="1061.6875"/><rect fill="#F1F1F1" height="26.2969" rx="5" ry="5" style="stroke:#181818;stroke-width:1.5;" width="76" x="311" y="1048.5391"/><text fill="#000000" font-family="sans-serif" font-size="14" lengthAdjust="spacing" textLength="66" x="316" y="1066.5342">loop_end</text><ellipse cx="14" cy="1061.6875" fill="none" rx="4" ry="4" style="stroke:#181818;stroke-width:2.0;"/><ellipse cx="417" cy="1061.6875" fill="#181818" rx="4" ry="4" style="stroke:#181818;stroke-width:1.0;"/><line style="stroke:#181818;stroke-width:1.5;" x1="18" x2="40" y1="1061.6875" y2="1061.6875"/><line style="stroke:#181818;stroke-width:1.5;" x1="387" x2="413" y1="1061.6875" y2="1061.6875"/><path d="M398,1061.6875 L398,1058.6875 L404,1061.6875 L398,1064.6875 L398,1061.6875 " fill="#181818" style="stroke:#181818;stroke-width:1.5;"/><path d="M10,1094.8359 L10,1119.9688 L462,1119.9688 L462,1104.8359 L452,1094.8359 L10,1094.8359 " fill="#FEFFDD" style="stroke:#181818;stroke-width:0.5;"/><path d="M452,1094.8359 L452,1104.8359 L462,1104.8359 L452,1094.8359 " fill="#FEFFDD" style="stroke:#181818;stroke-width:0.5;"/><text fill="#000000" font-family="sans-serif" font-size="13" lengthAdjust="spacing" textLength="427" x="20" y="1111.9028">A statement is a single instruction that can be executed, or a loop.</text><text fill="#000000" font-family="sans-serif" font-size="14" font-weight="bold" lengthAdjust="spacing" textLength="86" x="10" y="1147.9639">statement</text><rect fill="#F1F1F1" height="26.2969" rx="5" ry="5" style="stroke:#181818;stroke-width:1.5;" width="85" x="64" y="1161.2656"/><text fill="#000000" font-family="sans-serif" font-size="14" lengthAdjust="spacing" textLength="75" x="69" y="1179.2607">increment</text><line style="stroke:#181818;stroke-width:1.5;" x1="40" x2="64" y1="1174.4141" y2="1174.4141"/><line style="stroke:#181818;stroke-width:1.5;" x1="149" x2="180" y1="1174.4141" y2="1174.4141"/><rect fill="#F1F1F1" height="26.2969" rx="5" ry="5" style="stroke:#181818;stroke-width:1.5;" width="90" x="64" y="1197.5625"/><text fill="#000000" font-family="sans-serif" font-size="14" lengthAdjust="spacing" textLength="80" x="69" y="1215.5576">decrement</text><path d="M52,1198.7109 C52,1207.7109 55,1210.7109 64,1210.7109 " fill="none" style="stroke:#181818;stroke-width:1.5;"/><line style="stroke:#181818;stroke-width:1.5;" x1="154" x2="156" y1="1210.7109" y2="1210.7109"/><path d="M168,1198.7109 C168,1207.7109 165,1210.7109 156,1210.7109 " fill="none" style="stroke:#181818;stroke-width:1.5;"/><rect fill="#F1F1F1" height="26.2969" rx="5" ry="5" style="stroke:#181818;stroke-width:1.5;" width="92" x="64" y="1233.8594"/><text fill="#000000" font-family="sans-serif" font-size="14" lengthAdjust="spacing" textLength="82" x="69" y="1251.8545">move_right</text><path d="M52,1235.0078 C52,1244.0078 55,1247.0078 64,1247.0078 " fill="none" style="stroke:#181818;stroke-width:1.5;"/><line style="stroke:#181818;stroke-width:1.5;" x1="156" x2="156" y1="1247.0078" y2="1247.0078"/><path d="M168,1235.0078 C168,1244.0078 165,1247.0078 156,1247.0078 " fill="none" style="stroke:#181818;stroke-width:1.5;"/><rect fill="#F1F1F1" height="26.2969" rx="5" ry="5" style="stroke:#181818;stroke-width:1.5;" width="83" x="64" y="1270.1563"/><text fill="#000000" font-family="sans-serif" font-size="14" lengthAdjust="spacing" textLength="73" x="69" y="1288.1514">move_left</text><path d="M52,1271.3047 C52,1280.3047 55,1283.3047 64,1283.3047 " fill="none" style="stroke:#181818;stroke-width:1.5;"/><line style="stroke:#181818;stroke-width:1.5;" x1="147" x2="156" y1="1283.3047" y2="1283.3047"/><path d="M168,1271.3047 C168,1280.3047 165,1283.3047 156,1283.3047 " fill="none" style="stroke:#181818;stroke-width:1.5;"/><rect fill="#F1F1F1" height="26.2969" rx="5" ry="5" style="stroke:#181818;stroke-width:1.5;" width="59" x="64" y="1306.4531"/><text fill="#000000" font-family="sans-serif" font-size="14" lengthAdjust="spacing" textLength="49" x="69" y="1324.4482">output</text><path d="M52,1307.6016 C52,1316.6016 55,1319.6016 64,1319.6016 " fill="none" style="stroke:#181818;stroke-width:1.5;"/><line style="stroke:#181818;stroke-width:1.5;" x1="123" x2="156" y1="1319.6016" y2="1319.6016"/><path d="M137.5,1319.6016 L137.5,1316.6016 L143.5,1319.6016 L137.5,1322.6016 L137.5,1319.6016 " fill="#181818" style="stroke:#181818;stroke-width:1.5;"/><path d="M168,1307.6016 C168,1316.6016 165,1319.6016 156,1319.6016 " fill="none" style="stroke:#181818;stroke-width:1.5;"/><rect fill="#F1F1F1" height="26.2969" rx="5" ry="5" style="stroke:#181818;stroke-width:1.5;" width="48" x="64" y="1342.75"/><text fill="#000000" font-family="sans-serif" font-size="14" lengthAdjust="spacing" textLength="38" x="69" y="1360.7451">input</text><path d="M52,1343.8984 C52,1352.8984 55,1355.8984 64,1355.8984 " fill="none" style="stroke:#181818;stroke-width:1.5;"/><line style="stroke:#181818;stroke-width:1.5;" x1="112" x2="156" y1="1355.8984" y2="1355.8984"/><path d="M132,1355.8984 L132,1352.8984 L138,1355.8984 L132,1358.8984 L132,1355.8984 " fill="#181818" style="stroke:#181818;stroke-width:1.5;"/><path d="M168,1343.8984 C168,1352.8984 165,1355.8984 156,1355.8984 " fill="none" style="stroke:#181818;stroke-width:1.5;"/><rect fill="#F1F1F1" height="26.2969" rx="5" ry="5" style="stroke:#181818;stroke-width:1.5;" width="42" x="64" y="1379.0469"/><text fill="#000000" font-family="sans-serif" font-size="14" lengthAdjust="spacing" textLength="32" x="69" y="1397.042">loop</text><line style="stroke:#181818;stroke-width:1.5;" x1="106" x2="156" y1="1392.1953" y2="1392.1953"/><path d="M129,1392.1953 L129,1389.1953 L135,1392.1953 L129,1395.1953 L129,1392.1953 " fill="#181818" style="stroke:#181818;stroke-width:1.5;"/><path d="M52,1380.1953 C52,1389.1953 55,1392.1953 64,1392.1953 " fill="none" style="stroke:#181818;stroke-width:1.5;"/><line style="stroke:#181818;stroke-width:1.5;" x1="52" x2="52" y1="1186.4141" y2="1380.1953"/><path d="M40,1174.4141 C49,1174.4141 52,1177.4141 52,1186.4141 " fill="none" style="stroke:#181818;stroke-width:1.5;"/><path d="M168,1380.1953 C168,1389.1953 165,1392.1953 156,1392.1953 " fill="none" style="stroke:#181818;stroke-width:1.5;"/><line style="stroke:#181818;stroke-width:1.5;" x1="168" x2="168" y1="1186.4141" y2="1380.1953"/><path d="M168,1186.4141 C168,1177.4141 171,1174.4141 180,1174.4141 " fill="none" style="stroke:#181818;stroke-width:1.5;"/><ellipse cx="14" cy="1174.4141" fill="none" rx="4" ry="4" style="stroke:#181818;stroke-width:2.0;"/><ellipse cx="210" cy="1174.4141" fill="#181818" rx="4" ry="4" style="stroke:#181818;stroke-width:1.0;"/><line style="stroke:#181818;stroke-width:1.5;" x1="18" x2="40" y1="1174.4141" y2="1174.4141"/><line style="stroke:#181818;stroke-width:1.5;" x1="180" x2="206" y1="1174.4141" y2="1174.4141"/><path d="M191,1174.4141 L191,1171.4141 L197,1174.4141 L191,1177.4141 L191,1174.4141 " fill="#181818" style="stroke:#181818;stroke-width:1.5;"/><path d="M10,1425.3438 L10,1450.4766 L298,1450.4766 L298,1435.3438 L288,1425.3438 L10,1425.3438 " fill="#FEFFDD" style="stroke:#181818;stroke-width:0.5;"/><path d="M288,1425.3438 L288,1435.3438 L298,1435.3438 L288,1425.3438 " fill="#FEFFDD" style="stroke:#181818;stroke-width:0.5;"/><text fill="#000000" font-family="sans-serif" font-size="13" lengthAdjust="spacing" textLength="259" x="20" y="1442.4106">A program is a sequence of statements.</text><text fill="#000000" font-family="sans-serif" font-size="14" font-weight="bold" lengthAdjust="spacing" textLength="69" x="10" y="1478.4717">program</text><path d="M48,1524.9219 C48,1530.9219 46,1532.9219 40,1532.9219 " fill="none" style="stroke:#181818;stroke-width:1.5;"/><line style="stroke:#181818;stroke-width:1.5;" x1="48" x2="48" y1="1504.7734" y2="1524.9219"/><path d="M48,1504.7734 C48,1498.7734 50,1496.7734 56,1496.7734 " fill="none" style="stroke:#181818;stroke-width:1.5;"/><line style="stroke:#181818;stroke-width:1.5;" x1="56" x2="171" y1="1496.7734" y2="1496.7734"/><path d="M100,1496.7734 L100,1493.7734 L106,1496.7734 L100,1499.7734 L100,1496.7734 " fill="#181818" style="stroke:#181818;stroke-width:1.5;"/><path d="M179,1524.9219 C179,1530.9219 181,1532.9219 187,1532.9219 " fill="none" style="stroke:#181818;stroke-width:1.5;"/><line style="stroke:#181818;stroke-width:1.5;" x1="179" x2="179" y1="1504.7734" y2="1524.9219"/><path d="M171,1496.7734 C177,1496.7734 179,1498.7734 179,1504.7734 " fill="none" style="stroke:#181818;stroke-width:1.5;"/><line style="stroke:#181818;stroke-width:1.5;" x1="40" x2="55" y1="1532.9219" y2="1532.9219"/><line style="stroke:#181818;stroke-width:1.5;" x1="172" x2="187" y1="1532.9219" y2="1532.9219"/><path d="M63,1524.9219 C63,1530.9219 65,1532.9219 71,1532.9219 " fill="none" style="stroke:#181818;stroke-width:1.5;"/><line style="stroke:#181818;stroke-width:1.5;" x1="63" x2="63" y1="1520.7734" y2="1524.9219"/><path d="M63,1520.7734 C63,1514.7734 65,1512.7734 71,1512.7734 " fill="none" style="stroke:#181818;stroke-width:1.5;"/><line style="stroke:#181818;stroke-width:1.5;" x1="70" x2="157" y1="1512.7734" y2="1512.7734"/><path d="M120.2,1512.7734 L120.2,1509.7734 L114.2,1512.7734 L120.2,1515.7734 L120.2,1512.7734 " fill="#181818" style="stroke:#181818;stroke-width:1.5;"/><path d="M164,1524.9219 C164,1530.9219 162,1532.9219 156,1532.9219 " fill="none" style="stroke:#181818;stroke-width:1.5;"/><line style="stroke:#181818;stroke-width:1.5;" x1="164" x2="164" y1="1520.7734" y2="1524.9219"/><path d="M156,1512.7734 C162,1512.7734 164,1514.7734 164,1520.7734 " fill="none" style="stroke:#181818;stroke-width:1.5;"/><line style="stroke:#181818;stroke-width:1.5;" x1="55" x2="70" y1="1532.9219" y2="1532.9219"/><line style="stroke:#181818;stroke-width:1.5;" x1="157" x2="172" y1="1532.9219" y2="1532.9219"/><rect fill="#F1F1F1" height="26.2969" rx="5" ry="5" style="stroke:#181818;stroke-width:1.5;" width="87" x="70" y="1519.7734"/><text fill="#000000" font-family="sans-serif" font-size="14" lengthAdjust="spacing" textLength="77" x="75" y="1537.7686">statement</text><ellipse cx="14" cy="1532.9219" fill="none" rx="4" ry="4" style="stroke:#181818;stroke-width:2.0;"/><ellipse cx="217" cy="1532.9219" fill="#181818" rx="4" ry="4" style="stroke:#181818;stroke-width:1.0;"/><line style="stroke:#181818;stroke-width:1.5;" x1="18" x2="40" y1="1532.9219" y2="1532.9219"/><line style="stroke:#181818;stroke-width:1.5;" x1="187" x2="213" y1="1532.9219" y2="1532.9219"/><path d="M198,1532.9219 L198,1529.9219 L204,1532.9219 L198,1535.9219 L198,1532.9219 " fill="#181818" style="stroke:#181818;stroke-width:1.5;"/><!--SRC=[bLJTRzCm47_FNt7QKplQQbGJcWP5O-o3JQsOrdOl24skSsdD4Ziuvuv2-TyvEqvRXA3YCRwxtzVPEQj8MCAPpX9Ib2DC5WZdLt1jHL482-CIfSgK5AICJfBM8TneQR50JK3SkXIvGn3rXtJM-eB4F8VP2ep67Xos4xKP6S31YuFN0US2_nidnHsSRiGPcIM6gT8eJMY1JFYqQhwWE1sG0aJ1tOzrYJ7Uxi78CViBHAWmmfk8yD5HwVPP4HK8a0jXXMII06RgEKRgHQHx5Ebk6sJM5A2qRnCwXOgCHL34HtymnBGZOgTn9-nJ5Nh3ii5aZ9yRK_R2jZKAYnM5aqTa1gKhiaxwZSEpOjqMioOJLGMEq5kZCT6dI7IJxGb0LQ0DmNUqfkEh6hwuecpItkKLMLW3dnQ2v4BfUT1NEzXAy79PmESeu5tTf7pE5Nvrg2Lwkpn5uUBu65WO6mRyXj8HfkokH2wd-GgS9fNlz-3rRpGm_pQD3lpOSFtiR29jr6rgKIBRod_t7UH9eM6sLTW1OvkDCUaMP03RbxM6xUjOmyurZn_XmguXthTrl53hWDh8AwsPyxl_Ltx1TjCts7NB86TiDVnAahjSQ9gEXh14MtbVBtlze_vnxsY69FgjgNxIvbc3D4MfE05I1RQJrlNT42hZB9EcYZDHC-T3QIUtOYdWtc-dm5FmNwt9g0tZo-OGBlLIMQEzakJsOLGtmGT3uz9GQ7vrt3tdLpD6ovhWOPHSO2PSJZmgJSgRE8NfvAfxaWo5dZinPoBKoNl317R5jV4l]--></g></svg>
