<svg xmlns="http://www.w3.org/2000/svg" xmlns:xlink="http://www.w3.org/1999/xlink" contentStyleType="text/css" height="352px" preserveAspectRatio="none" style="width:482px;height:352px;background:#FFFFFF;" version="1.1" viewBox="0 0 482 352" width="482px" zoomAndPan="magnify"><defs/><g><path d="M10,15 L10,40.1328 L470.4609,40.1328 L470.4609,25 L460.4609,15 L10,15 " fill="#FEFFDD" style="stroke:#181818;stroke-width:0.5;"/><path d="M460.4609,15 L460.4609,25 L470.4609,25 L460.4609,15 " fill="#FEFFDD" style="stroke:#181818;stroke-width:0.5;"/><text fill="#000000" font-family="sans-serif" font-size="13" lengthAdjust="spacing" textLength="435.3286" x="20.1323" y="32.0669">A statement is a single instruction that can be executed, or a loop.</text><text fill="#000000" font-family="sans-serif" font-size="14" font-weight="bold" lengthAdjust="spacing" textLength="81.4023" x="10" y="68.1279">statement</text><rect fill="#F1F1F1" height="26.2969" rx="5" ry="5" style="stroke:#181818;stroke-width:1.5;" width="81.4424" x="64" y="81.4297"/><text fill="#000000" font-family="sans-serif" font-size="14" lengthAdjust="spacing" textLength="71.4424" x="69" y="99.4248">increment</text><line style="stroke:#181818;stroke-width:1.5;" x1="40" x2="64" y1="94.5781" y2="94.5781"/><line style="stroke:#181818;stroke-width:1.5;" x1="145.4424" x2="176.9961" y1="94.5781" y2="94.5781"/><rect fill="#F1F1F1" height="26.2969" rx="5" ry="5" style="stroke:#181818;stroke-width:1.5;" width="86.1797" x="64" y="117.7266"/><text fill="#000000" font-family="sans-serif" font-size="14" lengthAdjust="spacing" textLength="76.1797" x="69" y="135.7217">decrement</text><path d="M52,118.875 C52,127.875 55,130.875 64,130.875 " fill="none" style="stroke:#181818;stroke-width:1.5;"/><line style="stroke:#181818;stroke-width:1.5;" x1="150.1797" x2="152.9961" y1="130.875" y2="130.875"/><path d="M164.9961,118.875 C164.9961,127.875 161.9961,130.875 152.9961,130.875 " fill="none" style="stroke:#181818;stroke-width:1.5;"/><rect fill="#F1F1F1" height="26.2969" rx="5" ry="5" style="stroke:#181818;stroke-width:1.5;" width="88.9961" x="64" y="154.0234"/><text fill="#000000" font-family="sans-serif" font-size="14" lengthAdjust="spacing" textLength="78.9961" x="69" y="172.0186">move_right</text><path d="M52,155.1719 C52,164.1719 55,167.1719 64,167.1719 " fill="none" style="stroke:#181818;stroke-width:1.5;"/><line style="stroke:#181818;stroke-width:1.5;" x1="152.9961" x2="152.9961" y1="167.1719" y2="167.1719"/><path d="M164.9961,155.1719 C164.9961,164.1719 161.9961,167.1719 152.9961,167.1719 " fill="none" style="stroke:#181818;stroke-width:1.5;"/><rect fill="#F1F1F1" height="26.2969" rx="5" ry="5" style="stroke:#181818;stroke-width:1.5;" width="79.0225" x="64" y="190.3203"/><text fill="#000000" font-family="sans-serif" font-size="14" lengthAdjust="spacing" textLength="69.0225" x="69" y="208.3154">move_left</text><path d="M52,191.4688 C52,200.4688 55,203.4688 64,203.4688 " fill="none" style="stroke:#181818;stroke-width:1.5;"/><line style="stroke:#181818;stroke-width:1.5;" x1="143.0225" x2="152.9961" y1="203.4688" y2="203.4688"/><path d="M164.9961,191.4688 C164.9961,200.4688 161.9961,203.4688 152.9961,203.4688 " fill="none" style="stroke:#181818;stroke-width:1.5;"/><rect fill="#F1F1F1" height="26.2969" rx="5" ry="5" style="stroke:#181818;stroke-width:1.5;" width="56.1768" x="64" y="226.6172"/><text fill="#000000" font-family="sans-serif" font-size="14" lengthAdjust="spacing" textLength="46.1768" x="69" y="244.6123">output</text><path d="M52,227.7656 C52,236.7656 55,239.7656 64,239.7656 " fill="none" style="stroke:#181818;stroke-width:1.5;"/><line style="stroke:#181818;stroke-width:1.5;" x1="120.1768" x2="152.9961" y1="239.7656" y2="239.7656"/><path d="M134.5864,239.7656 L134.5864,236.7656 L140.5864,239.7656 L134.5864,242.7656 L134.5864,239.7656 " fill="#181818" style="stroke:#181818;stroke-width:1.5;"/><path d="M164.9961,227.7656 C164.9961,236.7656 161.9961,239.7656 152.9961,239.7656 " fill="none" style="stroke:#181818;stroke-width:1.5;"/><rect fill="#F1F1F1" height="26.2969" rx="5" ry="5" style="stroke:#181818;stroke-width:1.5;" width="46.0117" x="64" y="262.9141"/><text fill="#000000" font-family="sans-serif" font-size="14" lengthAdjust="spacing" textLength="36.0117" x="69" y="280.9092">input</text><path d="M52,264.0625 C52,273.0625 55,276.0625 64,276.0625 " fill="none" style="stroke:#181818;stroke-width:1.5;"/><line style="stroke:#181818;stroke-width:1.5;" x1="110.0117" x2="152.9961" y1="276.0625" y2="276.0625"/><path d="M129.5039,276.0625 L129.5039,273.0625 L135.5039,276.0625 L129.5039,279.0625 L129.5039,276.0625 " fill="#181818" style="stroke:#181818;stroke-width:1.5;"/><path d="M164.9961,264.0625 C164.9961,273.0625 161.9961,276.0625 152.9961,276.0625 " fill="none" style="stroke:#181818;stroke-width:1.5;"/><rect fill="#F1F1F1" height="26.2969" rx="5" ry="5" style="stroke:#181818;stroke-width:1.5;" width="39.9072" x="64" y="299.2109"/><text fill="#000000" font-family="sans-serif" font-size="14" lengthAdjust="spacing" textLength="29.9072" x="69" y="317.2061">loop</text><line style="stroke:#181818;stroke-width:1.5;" x1="103.9072" x2="152.9961" y1="312.3594" y2="312.3594"/><path d="M126.4517,312.3594 L126.4517,309.3594 L132.4517,312.3594 L126.4517,315.3594 L126.4517,312.3594 " fill="#181818" style="stroke:#181818;stroke-width:1.5;"/><path d="M52,300.3594 C52,309.3594 55,312.3594 64,312.3594 " fill="none" style="stroke:#181818;stroke-width:1.5;"/><line style="stroke:#181818;stroke-width:1.5;" x1="52" x2="52" y1="106.5781" y2="300.3594"/><path d="M40,94.5781 C49,94.5781 52,97.5781 52,106.5781 " fill="none" style="stroke:#181818;stroke-width:1.5;"/><path d="M164.9961,300.3594 C164.9961,309.3594 161.9961,312.3594 152.9961,312.3594 " fill="none" style="stroke:#181818;stroke-width:1.5;"/><line style="stroke:#181818;stroke-width:1.5;" x1="164.9961" x2="164.9961" y1="106.5781" y2="300.3594"/><path d="M164.9961,106.5781 C164.9961,97.5781 167.9961,94.5781 176.9961,94.5781 " fill="none" style="stroke:#181818;stroke-width:1.5;"/><ellipse cx="14" cy="94.5781" fill="none" rx="4" ry="4" style="stroke:#181818;stroke-width:2.0;"/><ellipse cx="206.9961" cy="94.5781" fill="#181818" rx="4" ry="4" style="stroke:#181818;stroke-width:1.0;"/><line style="stroke:#181818;stroke-width:1.5;" x1="18" x2="40" y1="94.5781" y2="94.5781"/><line style="stroke:#181818;stroke-width:1.5;" x1="176.9961" x2="202.9961" y1="94.5781" y2="94.5781"/><path d="M187.9961,94.5781 L187.9961,91.5781 L193.9961,94.5781 L187.9961,97.5781 L187.9961,94.5781 " fill="#181818" style="stroke:#181818;stroke-width:1.5;"/><!--SRC=[HP1HJy8m4CVV-odkSH1P1XA2CoOegCdS8X7XrNJTCPgCAsclYoP-U5k9ydJ_wztz-xjRE9QMiQQzI8Pm3o5bF28nQ0SIdAQsGz3as7h5sX3mGJ8eIL0Zu2SgpzXSWR6XkpFcb0u7uc9o5qQLFUjlQF2YZwR73wlRmt_IuJvgu_daez1qZj7rLYoGcbzCiUuayROgeKVh8j4udMIJQJfBDe6iy1raCyXkyl4qlvx3zdq9iJmGoVEw16UyLGYD3WlfsiUD1gAGlOGtJwoFcCFh2QbOlVmzm2FrsXgAtABOLPU6sNJqe1asQ0C9x2gnmhtq7OS9PPfmkJpy_ZIQYr9IwsKRl974qWHV-nLgcny0]--></g></svg>
