<?xml version="1.0" encoding="us-ascii" standalone="no"?><svg xmlns="http://www.w3.org/2000/svg" xmlns:xlink="http://www.w3.org/1999/xlink" contentStyleType="text/css" height="352px" preserveAspectRatio="none" style="width:474px;height:352px;background:#FFFFFF;" version="1.1" viewBox="0 0 474 352" width="474px" zoomAndPan="magnify"><defs/><g><path d="M10,15 L10,40.1328 L462,40.1328 L462,25 L452,15 L10,15 " fill="#FEFFDD" style="stroke:#181818;stroke-width:0.5;"/><path d="M452,15 L452,25 L462,25 L452,15 " fill="#FEFFDD" style="stroke:#181818;stroke-width:0.5;"/><text fill="#000000" font-family="sans-serif" font-size="13" lengthAdjust="spacing" textLength="427" x="20" y="32.0669">A statement is a single instruction that can be executed, or a loop.</text><text fill="#000000" font-family="sans-serif" font-size="14" font-weight="bold" lengthAdjust="spacing" textLength="86" x="10" y="68.1279">statement</text><rect fill="#F1F1F1" height="26.2969" rx="5" ry="5" style="stroke:#181818;stroke-width:1.5;" width="85" x="64" y="81.4297"/><text fill="#000000" font-family="sans-serif" font-size="14" lengthAdjust="spacing" textLength="75" x="69" y="99.4248">increment</text><line style="stroke:#181818;stroke-width:1.5;" x1="40" x2="64" y1="94.5781" y2="94.5781"/><line style="stroke:#181818;stroke-width:1.5;" x1="149" x2="180" y1="94.5781" y2="94.5781"/><rect fill="#F1F1F1" height="26.2969" rx="5" ry="5" style="stroke:#181818;stroke-width:1.5;" width="90" x="64" y="117.7266"/><text fill="#000000" font-family="sans-serif" font-size="14" lengthAdjust="spacing" textLength="80" x="69" y="135.7217">decrement</text><path d="M52,118.875 C52,127.875 55,130.875 64,130.875 " fill="none" style="stroke:#181818;stroke-width:1.5;"/><line style="stroke:#181818;stroke-width:1.5;" x1="154" x2="156" y1="130.875" y2="130.875"/><path d="M168,118.875 C168,127.875 165,130.875 156,130.875 " fill="none" style="stroke:#181818;stroke-width:1.5;"/><rect fill="#F1F1F1" height="26.2969" rx="5" ry="5" style="stroke:#181818;stroke-width:1.5;" width="92" x="64" y="154.0234"/><text fill="#000000" font-family="sans-serif" font-size="14" lengthAdjust="spacing" textLength="82" x="69" y="172.0186">move_right</text><path d="M52,155.1719 C52,164.1719 55,167.1719 64,167.1719 " fill="none" style="stroke:#181818;stroke-width:1.5;"/><line style="stroke:#181818;stroke-width:1.5;" x1="156" x2="156" y1="167.1719" y2="167.1719"/><path d="M168,155.1719 C168,164.1719 165,167.1719 156,167.1719 " fill="none" style="stroke:#181818;stroke-width:1.5;"/><rect fill="#F1F1F1" height="26.2969" rx="5" ry="5" style="stroke:#181818;stroke-width:1.5;" width="83" x="64" y="190.3203"/><text fill="#000000" font-family="sans-serif" font-size="14" lengthAdjust="spacing" textLength="73" x="69" y="208.3154">move_left</text><path d="M52,191.4688 C52,200.4688 55,203.4688 64,203.4688 " fill="none" style="stroke:#181818;stroke-width:1.5;"/><line style="stroke:#181818;stroke-width:1.5;" x1="147" x2="156" y1="203.4688" y2="203.4688"/><path d="M168,191.4688 C168,200.4688 165,203.4688 156,203.4688 " fill="none" style="stroke:#181818;stroke-width:1.5;"/><rect fill="#F1F1F1" height="26.2969" rx="5" ry="5" style="stroke:#181818;stroke-width:1.5;" width="59" x="64" y="226.6172"/><text fill="#000000" font-family="sans-serif" font-size="14" lengthAdjust="spacing" textLength="49" x="69" y="244.6123">output</text><path d="M52,227.7656 C52,236.7656 55,239.7656 64,239.7656 " fill="none" style="stroke:#181818;stroke-width:1.5;"/><line style="stroke:#181818;stroke-width:1.5;" x1="123" x2="156" y1="239.7656" y2="239.7656"/><path d="M137.5,239.7656 L137.5,236.7656 L143.5,239.7656 L137.5,242.7656 L137.5,239.7656 " fill="#181818" style="stroke:#181818;stroke-width:1.5;"/><path d="M168,227.7656 C168,236.7656 165,239.7656 156,239.7656 " fill="none" style="stroke:#181818;stroke-width:1.5;"/><rect fill="#F1F1F1" height="26.2969" rx="5" ry="5" style="stroke:#181818;stroke-width:1.5;" width="48" x="64" y="262.9141"/><text fill="#000000" font-family="sans-serif" font-size="14" lengthAdjust="spacing" textLength="38" x="69" y="280.9092">input</text><path d="M52,264.0625 C52,273.0625 55,276.0625 64,276.0625 " fill="none" style="stroke:#181818;stroke-width:1.5;"/><line style="stroke:#181818;stroke-width:1.5;" x1="112" x2="156" y1="276.0625" y2="276.0625"/><path d="M132,276.0625 L132,273.0625 L138,276.0625 L132,279.0625 L132,276.0625 " fill="#181818" style="stroke:#181818;stroke-width:1.5;"/><path d="M168,264.0625 C168,273.0625 165,276.0625 156,276.0625 " fill="none" style="stroke:#181818;stroke-width:1.5;"/><rect fill="#F1F1F1" height="26.2969" rx="5" ry="5" style="stroke:#181818;stroke-width:1.5;" width="42" x="64" y="299.2109"/><text fill="#000000" font-family="sans-serif" font-size="14" lengthAdjust="spacing" textLength="32" x="69" y="317.2061">loop</text><line style="stroke:#181818;stroke-width:1.5;" x1="106" x2="156" y1="312.3594" y2="312.3594"/><path d="M129,312.3594 L129,309.3594 L135,312.3594 L129,315.3594 L129,312.3594 " fill="#181818" style="stroke:#181818;stroke-width:1.5;"/><path d="M52,300.3594 C52,309.3594 55,312.3594 64,312.3594 " fill="none" style="stroke:#181818;stroke-width:1.5;"/><line style="stroke:#181818;stroke-width:1.5;" x1="52" x2="52" y1="106.5781" y2="300.3594"/><path d="M40,94.5781 C49,94.5781 52,97.5781 52,106.5781 " fill="none" style="stroke:#181818;stroke-width:1.5;"/><path d="M168,300.3594 C168,309.3594 165,312.3594 156,312.3594 " fill="none" style="stroke:#181818;stroke-width:1.5;"/><line style="stroke:#181818;stroke-width:1.5;" x1="168" x2="168" y1="106.5781" y2="300.3594"/><path d="M168,106.5781 C168,97.5781 171,94.5781 180,94.5781 " fill="none" style="stroke:#181818;stroke-width:1.5;"/><ellipse cx="14" cy="94.5781" fill="none" rx="4" ry="4" style="stroke:#181818;stroke-width:2.0;"/><ellipse cx="210" cy="94.5781" fill="#181818" rx="4" ry="4" style="stroke:#181818;stroke-width:1.0;"/><line style="stroke:#181818;stroke-width:1.5;" x1="18" x2="40" y1="94.5781" y2="94.5781"/><line style="stroke:#181818;stroke-width:1.5;" x1="180" x2="206" y1="94.5781" y2="94.5781"/><path d="M191,94.5781 L191,91.5781 L197,94.5781 L191,97.5781 L191,94.5781 " fill="#181818" style="stroke:#181818;stroke-width:1.5;"/><!--SRC=[HP3TRi8m38NlynI-RD503A5fOfh4VjWcH2Mq0hTJcfeIhRMhrEasQG-_13IuoZd9iVqvyqwq4onehv81F42mWWsIWEr0GsUfgX4iTUAy4Si4Sj02HXCK2FYDnWkMLy0kf6lcTZH8rQN9VIWrxgH_eSIBRhZ73sUhmzdKk8-QlRG-2akdCtQzKtEayeYfrhKcsMOhwD5raUXwD1bFfgDnWQ8doPO-YRy833Uj3UnY6qnLyhfUGSVU6OJIXcriuUCwgLhgNiExfvYRGNJ99aiXN_nVme9wwvWYk5hkibC8tbZobkKOlfaE7wr0ZYummIvJpxZNlfPGQhWCVpY3xUPbUAjMcYglgp08IJrn6E1-mbl-1m00]--></g></svg>
